<?xml version="1.0" standalone="no"?>
<svg viewBox="0 0 200 200" xmlns="http://www.w3.org/2000/svg">
  <path fill="#D3912B" d="M44.8,-49.1C61,-39.8,79,-28.5,83.3,-13.3C87.5,1.8,78,20.7,66.4,36.1C54.9,51.6,41.2,63.7,24.1,72.7C7,81.7,
  -13.6,87.7,-32,83.1C-50.4,78.4,-66.7,63.2,-70.9,45.8C-75.2,28.4,-67.4,9,-62.1,-9.1C-56.7,-27.2,-53.7,-43.8,-43.7,-54.2C-33.8,-64.5,
  -16.9,-68.7,-1.3,-67.1C14.3,-65.6,28.6,-58.4,44.8,-49.1Z" transform="translate(100 100)" />
</svg>

<svg viewBox="0 0 200 187" xmlns="http://www.w3.org/2000/svg" xmlns:xlink="http://www.w3.org/1999/xlink">
    <mask id="mask0" mask-type="alpha">
        <path d="M190.312 36.4879C206.582 62.1187 201.309 102.826 182.328 134.186C163.346 165.547 
        130.807 187.559 100.226 186.353C69.6454 185.297 41.0228 161.023 21.7403 129.362C2.45775 
        97.8511 -7.48481 59.1033 6.67581 34.5279C20.9871 10.1032 59.7028 -0.149132 97.9666 
        0.00163737C136.23 0.303176 174.193 10.857 190.312 36.4879Z"/>
    </mask>
    <g mask="url(#mask0)">
        <path d="M190.312 36.4879C206.582 62.1187 201.309 102.826 182.328 134.186C163.346 
        165.547 130.807 187.559 100.226 186.353C69.6454 185.297 41.0228 161.023 21.7403 
        129.362C2.45775 97.8511 -7.48481 59.1033 6.67581 34.5279C20.9871 10.1032 59.7028 
        -0.149132 97.9666 0.00163737C136.23 0.303176 174.193 10.857 190.312 36.4879Z"/>
        <image class="home_" xlink:href="/assets/img/profile_img.png"/>
    </g>
</svg>
